<?xml version="1.0" encoding="utf-8"?>
<svg xmlns="http://www.w3.org/2000/svg" xmlns:xlink="http://www.w3.org/1999/xlink" style="margin: auto; background: rgb(241, 242, 243); display: block; shape-rendering: auto;" width="200px" height="200px" viewBox="0 0 100 100" preserveAspectRatio="xMidYMid">
<g transform="rotate(0 50 50)">
  <rect x="47" y="24" rx="3" ry="6" width="6" height="12" fill="#292664">
    <animate attributeName="opacity" values="1;0" keyTimes="0;1" dur="0.5747126436781609s" begin="-0.5268199233716475s" repeatCount="indefinite"></animate>
  </rect>
</g><g transform="rotate(30 50 50)">
  <rect x="47" y="24" rx="3" ry="6" width="6" height="12" fill="#292664">
    <animate attributeName="opacity" values="1;0" keyTimes="0;1" dur="0.5747126436781609s" begin="-0.47892720306513414s" repeatCount="indefinite"></animate>
  </rect>
</g><g transform="rotate(60 50 50)">
  <rect x="47" y="24" rx="3" ry="6" width="6" height="12" fill="#292664">
    <animate attributeName="opacity" values="1;0" keyTimes="0;1" dur="0.5747126436781609s" begin="-0.4310344827586207s" repeatCount="indefinite"></animate>
  </rect>
</g><g transform="rotate(90 50 50)">
  <rect x="47" y="24" rx="3" ry="6" width="6" height="12" fill="#292664">
    <animate attributeName="opacity" values="1;0" keyTimes="0;1" dur="0.5747126436781609s" begin="-0.3831417624521073s" repeatCount="indefinite"></animate>
  </rect>
</g><g transform="rotate(120 50 50)">
  <rect x="47" y="24" rx="3" ry="6" width="6" height="12" fill="#292664">
    <animate attributeName="opacity" values="1;0" keyTimes="0;1" dur="0.5747126436781609s" begin="-0.33524904214559387s" repeatCount="indefinite"></animate>
  </rect>
</g><g transform="rotate(150 50 50)">
  <rect x="47" y="24" rx="3" ry="6" width="6" height="12" fill="#292664">
    <animate attributeName="opacity" values="1;0" keyTimes="0;1" dur="0.5747126436781609s" begin="-0.2873563218390805s" repeatCount="indefinite"></animate>
  </rect>
</g><g transform="rotate(180 50 50)">
  <rect x="47" y="24" rx="3" ry="6" width="6" height="12" fill="#292664">
    <animate attributeName="opacity" values="1;0" keyTimes="0;1" dur="0.5747126436781609s" begin="-0.23946360153256707s" repeatCount="indefinite"></animate>
  </rect>
</g><g transform="rotate(210 50 50)">
  <rect x="47" y="24" rx="3" ry="6" width="6" height="12" fill="#292664">
    <animate attributeName="opacity" values="1;0" keyTimes="0;1" dur="0.5747126436781609s" begin="-0.19157088122605365s" repeatCount="indefinite"></animate>
  </rect>
</g><g transform="rotate(240 50 50)">
  <rect x="47" y="24" rx="3" ry="6" width="6" height="12" fill="#292664">
    <animate attributeName="opacity" values="1;0" keyTimes="0;1" dur="0.5747126436781609s" begin="-0.14367816091954025s" repeatCount="indefinite"></animate>
  </rect>
</g><g transform="rotate(270 50 50)">
  <rect x="47" y="24" rx="3" ry="6" width="6" height="12" fill="#292664">
    <animate attributeName="opacity" values="1;0" keyTimes="0;1" dur="0.5747126436781609s" begin="-0.09578544061302682s" repeatCount="indefinite"></animate>
  </rect>
</g><g transform="rotate(300 50 50)">
  <rect x="47" y="24" rx="3" ry="6" width="6" height="12" fill="#292664">
    <animate attributeName="opacity" values="1;0" keyTimes="0;1" dur="0.5747126436781609s" begin="-0.04789272030651341s" repeatCount="indefinite"></animate>
  </rect>
</g><g transform="rotate(330 50 50)">
  <rect x="47" y="24" rx="3" ry="6" width="6" height="12" fill="#292664">
    <animate attributeName="opacity" values="1;0" keyTimes="0;1" dur="0.5747126436781609s" begin="0s" repeatCount="indefinite"></animate>
  </rect>
</g>
<!-- [ldio] generated by https://loading.io/ --></svg>